<mxfile host="Electron" modified="2023-07-13T12:28:38.961Z" agent="Mozilla/5.0 (Windows NT 10.0; Win64; x64) AppleWebKit/537.36 (KHTML, like Gecko) draw.io/21.6.1 Chrome/112.0.5615.204 Electron/24.6.1 Safari/537.36" etag="irj-D8Ny-kkDIELWdfJ6" version="21.6.1" type="device">
  <diagram name="Page-1" id="m9mnmYUp-4mi6UZCbh7n">
    <mxGraphModel dx="955" dy="580" grid="1" gridSize="10" guides="1" tooltips="1" connect="1" arrows="1" fold="1" page="1" pageScale="1" pageWidth="3000" pageHeight="3000" math="0" shadow="0">
      <root>
        <mxCell id="0" />
        <mxCell id="1" parent="0" />
        <mxCell id="AMoFaE7joyPMXflnSyXj-1" value="&lt;font style=&quot;font-size: 28px;&quot;&gt;0&lt;/font&gt;" style="ellipse;whiteSpace=wrap;html=1;aspect=fixed;" parent="1" vertex="1">
          <mxGeometry x="360" y="360" width="80" height="80" as="geometry" />
        </mxCell>
        <mxCell id="AMoFaE7joyPMXflnSyXj-2" value="&lt;font style=&quot;font-size: 28px;&quot;&gt;1&lt;/font&gt;" style="ellipse;whiteSpace=wrap;html=1;aspect=fixed;" parent="1" vertex="1">
          <mxGeometry x="680" y="360" width="80" height="80" as="geometry" />
        </mxCell>
        <mxCell id="AMoFaE7joyPMXflnSyXj-3" value="" style="endArrow=classic;html=1;rounded=0;exitX=1;exitY=0.5;exitDx=0;exitDy=0;entryX=0;entryY=0.5;entryDx=0;entryDy=0;" parent="1" source="AMoFaE7joyPMXflnSyXj-22" target="H5EoVn_Cu4zVBm4JNlwW-1" edge="1">
          <mxGeometry width="50" height="50" relative="1" as="geometry">
            <mxPoint x="430" y="770" as="sourcePoint" />
            <mxPoint x="670" y="770" as="targetPoint" />
          </mxGeometry>
        </mxCell>
        <mxCell id="AMoFaE7joyPMXflnSyXj-4" value="&lt;font style=&quot;&quot; face=&quot;Courier New&quot;&gt;&lt;b style=&quot;&quot;&gt;&lt;span style=&quot;font-size: 24px;&quot;&gt;&#39;\&#39;&lt;/span&gt;&lt;br&gt;&lt;font style=&quot;font-size: 16px;&quot;&gt;putchar(c)&lt;/font&gt;&lt;br&gt;&lt;/b&gt;&lt;/font&gt;" style="edgeLabel;html=1;align=center;verticalAlign=middle;resizable=0;points=[];" parent="AMoFaE7joyPMXflnSyXj-3" vertex="1" connectable="0">
          <mxGeometry x="0.1583" y="1" relative="1" as="geometry">
            <mxPoint x="-19" y="1" as="offset" />
          </mxGeometry>
        </mxCell>
        <mxCell id="AMoFaE7joyPMXflnSyXj-5" value="&lt;font style=&quot;font-size: 28px;&quot;&gt;2&lt;/font&gt;" style="ellipse;whiteSpace=wrap;html=1;aspect=fixed;" parent="1" vertex="1">
          <mxGeometry x="680" y="120" width="80" height="80" as="geometry" />
        </mxCell>
        <mxCell id="AMoFaE7joyPMXflnSyXj-6" value="" style="endArrow=classic;html=1;rounded=0;exitX=0.5;exitY=0;exitDx=0;exitDy=0;entryX=0.5;entryY=1;entryDx=0;entryDy=0;" parent="1" source="AMoFaE7joyPMXflnSyXj-2" target="AMoFaE7joyPMXflnSyXj-5" edge="1">
          <mxGeometry width="50" height="50" relative="1" as="geometry">
            <mxPoint x="480" y="330" as="sourcePoint" />
            <mxPoint x="720" y="330" as="targetPoint" />
          </mxGeometry>
        </mxCell>
        <mxCell id="AMoFaE7joyPMXflnSyXj-7" value="&lt;font style=&quot;font-size: 24px;&quot; face=&quot;Courier New&quot;&gt;&lt;b&gt;&#39;/&#39;&lt;/b&gt;&lt;/font&gt;" style="edgeLabel;html=1;align=center;verticalAlign=middle;resizable=0;points=[];" parent="AMoFaE7joyPMXflnSyXj-6" vertex="1" connectable="0">
          <mxGeometry x="0.1583" y="1" relative="1" as="geometry">
            <mxPoint x="1" y="1" as="offset" />
          </mxGeometry>
        </mxCell>
        <mxCell id="AMoFaE7joyPMXflnSyXj-8" value="" style="endArrow=classic;html=1;rounded=0;exitX=0;exitY=1;exitDx=0;exitDy=0;entryX=1;entryY=0;entryDx=0;entryDy=0;" parent="1" source="AMoFaE7joyPMXflnSyXj-5" target="AMoFaE7joyPMXflnSyXj-1" edge="1">
          <mxGeometry width="50" height="50" relative="1" as="geometry">
            <mxPoint x="520" y="370" as="sourcePoint" />
            <mxPoint x="520" y="210" as="targetPoint" />
          </mxGeometry>
        </mxCell>
        <mxCell id="AMoFaE7joyPMXflnSyXj-9" value="&lt;font style=&quot;&quot; face=&quot;Courier New&quot;&gt;&lt;b style=&quot;&quot;&gt;&lt;span style=&quot;font-size: 24px;&quot;&gt;&#39;\n&#39;&lt;/span&gt;&lt;br&gt;&lt;font style=&quot;font-size: 16px;&quot;&gt;putchar(&#39;\n&#39;)&lt;/font&gt;&lt;br&gt;&lt;/b&gt;&lt;/font&gt;" style="edgeLabel;html=1;align=center;verticalAlign=middle;resizable=0;points=[];" parent="AMoFaE7joyPMXflnSyXj-8" vertex="1" connectable="0">
          <mxGeometry x="0.1583" y="1" relative="1" as="geometry">
            <mxPoint x="30" y="-25" as="offset" />
          </mxGeometry>
        </mxCell>
        <mxCell id="AMoFaE7joyPMXflnSyXj-10" value="&lt;font style=&quot;font-size: 28px;&quot;&gt;3&lt;/font&gt;" style="ellipse;whiteSpace=wrap;html=1;aspect=fixed;" parent="1" vertex="1">
          <mxGeometry x="960" y="360" width="80" height="80" as="geometry" />
        </mxCell>
        <mxCell id="AMoFaE7joyPMXflnSyXj-11" value="" style="endArrow=classic;html=1;rounded=0;exitX=1;exitY=0.5;exitDx=0;exitDy=0;entryX=0;entryY=0.5;entryDx=0;entryDy=0;" parent="1" source="AMoFaE7joyPMXflnSyXj-2" target="AMoFaE7joyPMXflnSyXj-10" edge="1">
          <mxGeometry width="50" height="50" relative="1" as="geometry">
            <mxPoint x="860" y="390" as="sourcePoint" />
            <mxPoint x="860" y="230" as="targetPoint" />
          </mxGeometry>
        </mxCell>
        <mxCell id="AMoFaE7joyPMXflnSyXj-12" value="&lt;font style=&quot;font-size: 24px;&quot; face=&quot;Courier New&quot;&gt;&lt;b&gt;&#39;*&#39;&lt;/b&gt;&lt;/font&gt;" style="edgeLabel;html=1;align=center;verticalAlign=middle;resizable=0;points=[];" parent="AMoFaE7joyPMXflnSyXj-11" vertex="1" connectable="0">
          <mxGeometry x="0.1583" y="1" relative="1" as="geometry">
            <mxPoint x="1" y="1" as="offset" />
          </mxGeometry>
        </mxCell>
        <mxCell id="AMoFaE7joyPMXflnSyXj-13" value="" style="curved=1;endArrow=classic;html=1;rounded=0;exitX=1;exitY=0.5;exitDx=0;exitDy=0;entryX=0.5;entryY=1;entryDx=0;entryDy=0;" parent="1" source="AMoFaE7joyPMXflnSyXj-10" target="AMoFaE7joyPMXflnSyXj-10" edge="1">
          <mxGeometry width="50" height="50" relative="1" as="geometry">
            <mxPoint x="1070" y="425" as="sourcePoint" />
            <mxPoint x="1120" y="375" as="targetPoint" />
            <Array as="points">
              <mxPoint x="1120" y="400" />
              <mxPoint x="1000" y="520" />
            </Array>
          </mxGeometry>
        </mxCell>
        <mxCell id="AMoFaE7joyPMXflnSyXj-14" value="&lt;font style=&quot;font-size: 24px;&quot; face=&quot;Courier New&quot;&gt;&lt;b&gt;else&lt;/b&gt;&lt;/font&gt;" style="edgeLabel;html=1;align=center;verticalAlign=middle;resizable=0;points=[];" parent="AMoFaE7joyPMXflnSyXj-13" vertex="1" connectable="0">
          <mxGeometry x="-0.0756" y="-1" relative="1" as="geometry">
            <mxPoint as="offset" />
          </mxGeometry>
        </mxCell>
        <mxCell id="AMoFaE7joyPMXflnSyXj-15" value="&lt;font style=&quot;font-size: 28px;&quot;&gt;4&lt;/font&gt;" style="ellipse;whiteSpace=wrap;html=1;aspect=fixed;" parent="1" vertex="1">
          <mxGeometry x="1240" y="360" width="80" height="80" as="geometry" />
        </mxCell>
        <mxCell id="AMoFaE7joyPMXflnSyXj-16" value="" style="endArrow=classic;html=1;rounded=0;exitX=1;exitY=0.5;exitDx=0;exitDy=0;entryX=0;entryY=0.5;entryDx=0;entryDy=0;" parent="1" source="AMoFaE7joyPMXflnSyXj-10" target="AMoFaE7joyPMXflnSyXj-15" edge="1">
          <mxGeometry width="50" height="50" relative="1" as="geometry">
            <mxPoint x="980" y="280" as="sourcePoint" />
            <mxPoint x="1180" y="280" as="targetPoint" />
          </mxGeometry>
        </mxCell>
        <mxCell id="AMoFaE7joyPMXflnSyXj-17" value="&lt;font style=&quot;font-size: 24px;&quot; face=&quot;Courier New&quot;&gt;&lt;b&gt;&#39;*&#39;&lt;/b&gt;&lt;/font&gt;" style="edgeLabel;html=1;align=center;verticalAlign=middle;resizable=0;points=[];" parent="AMoFaE7joyPMXflnSyXj-16" vertex="1" connectable="0">
          <mxGeometry x="0.1583" y="1" relative="1" as="geometry">
            <mxPoint x="1" y="1" as="offset" />
          </mxGeometry>
        </mxCell>
        <mxCell id="AMoFaE7joyPMXflnSyXj-18" value="" style="curved=1;endArrow=classic;html=1;rounded=0;exitX=0.5;exitY=1;exitDx=0;exitDy=0;entryX=0.5;entryY=1;entryDx=0;entryDy=0;" parent="1" source="AMoFaE7joyPMXflnSyXj-15" target="AMoFaE7joyPMXflnSyXj-10" edge="1">
          <mxGeometry width="50" height="50" relative="1" as="geometry">
            <mxPoint x="1160" y="480" as="sourcePoint" />
            <mxPoint x="1120" y="520" as="targetPoint" />
            <Array as="points">
              <mxPoint x="1280" y="480" />
              <mxPoint x="1000" y="560" />
            </Array>
          </mxGeometry>
        </mxCell>
        <mxCell id="AMoFaE7joyPMXflnSyXj-19" value="&lt;font style=&quot;font-size: 24px;&quot; face=&quot;Courier New&quot;&gt;&lt;b&gt;else&lt;/b&gt;&lt;/font&gt;" style="edgeLabel;html=1;align=center;verticalAlign=middle;resizable=0;points=[];" parent="AMoFaE7joyPMXflnSyXj-18" vertex="1" connectable="0">
          <mxGeometry x="-0.0756" y="-1" relative="1" as="geometry">
            <mxPoint x="53" y="-15" as="offset" />
          </mxGeometry>
        </mxCell>
        <mxCell id="AMoFaE7joyPMXflnSyXj-20" value="" style="curved=1;endArrow=classic;html=1;rounded=0;exitX=0.5;exitY=0;exitDx=0;exitDy=0;entryX=0.5;entryY=0;entryDx=0;entryDy=0;" parent="1" source="AMoFaE7joyPMXflnSyXj-15" target="AMoFaE7joyPMXflnSyXj-1" edge="1">
          <mxGeometry width="50" height="50" relative="1" as="geometry">
            <mxPoint x="1230" y="100" as="sourcePoint" />
            <mxPoint x="950" y="100" as="targetPoint" />
            <Array as="points">
              <mxPoint x="1280" y="80" />
              <mxPoint x="400" y="80" />
            </Array>
          </mxGeometry>
        </mxCell>
        <mxCell id="AMoFaE7joyPMXflnSyXj-21" value="&lt;font size=&quot;1&quot; style=&quot;&quot; face=&quot;Courier New&quot;&gt;&lt;b style=&quot;font-size: 28px;&quot;&gt;&#39;/&#39;&lt;/b&gt;&lt;/font&gt;" style="edgeLabel;html=1;align=center;verticalAlign=middle;resizable=0;points=[];" parent="AMoFaE7joyPMXflnSyXj-20" vertex="1" connectable="0">
          <mxGeometry x="-0.0756" y="-1" relative="1" as="geometry">
            <mxPoint x="-34" y="1" as="offset" />
          </mxGeometry>
        </mxCell>
        <mxCell id="AMoFaE7joyPMXflnSyXj-22" value="&lt;font style=&quot;font-size: 28px;&quot;&gt;5&lt;/font&gt;" style="ellipse;whiteSpace=wrap;html=1;aspect=fixed;" parent="1" vertex="1">
          <mxGeometry x="360" y="680" width="80" height="80" as="geometry" />
        </mxCell>
        <mxCell id="AMoFaE7joyPMXflnSyXj-23" value="" style="endArrow=classic;html=1;rounded=0;exitX=0.5;exitY=1;exitDx=0;exitDy=0;entryX=0.5;entryY=0;entryDx=0;entryDy=0;" parent="1" source="AMoFaE7joyPMXflnSyXj-1" target="AMoFaE7joyPMXflnSyXj-22" edge="1">
          <mxGeometry width="50" height="50" relative="1" as="geometry">
            <mxPoint x="390" y="530" as="sourcePoint" />
            <mxPoint x="630" y="530" as="targetPoint" />
          </mxGeometry>
        </mxCell>
        <mxCell id="AMoFaE7joyPMXflnSyXj-24" value="&lt;font style=&quot;&quot; face=&quot;Courier New&quot;&gt;&lt;b style=&quot;&quot;&gt;&lt;span style=&quot;font-size: 24px;&quot;&gt;&#39;&quot;&#39;&lt;/span&gt;&lt;br&gt;&lt;font style=&quot;font-size: 16px;&quot;&gt;putchar(c)&lt;/font&gt;&lt;br&gt;&lt;/b&gt;&lt;/font&gt;" style="edgeLabel;html=1;align=center;verticalAlign=middle;resizable=0;points=[];" parent="AMoFaE7joyPMXflnSyXj-23" vertex="1" connectable="0">
          <mxGeometry x="0.1583" y="1" relative="1" as="geometry">
            <mxPoint x="-1" y="-19" as="offset" />
          </mxGeometry>
        </mxCell>
        <mxCell id="AMoFaE7joyPMXflnSyXj-25" value="" style="curved=1;endArrow=classic;html=1;rounded=0;exitX=0.5;exitY=1;exitDx=0;exitDy=0;entryX=1;entryY=1;entryDx=0;entryDy=0;" parent="1" source="AMoFaE7joyPMXflnSyXj-2" target="AMoFaE7joyPMXflnSyXj-1" edge="1">
          <mxGeometry width="50" height="50" relative="1" as="geometry">
            <mxPoint x="550" y="470" as="sourcePoint" />
            <mxPoint x="510" y="510" as="targetPoint" />
            <Array as="points">
              <mxPoint x="640" y="480" />
              <mxPoint x="520" y="520" />
            </Array>
          </mxGeometry>
        </mxCell>
        <mxCell id="AMoFaE7joyPMXflnSyXj-26" value="&lt;font style=&quot;&quot; face=&quot;Courier New&quot;&gt;&lt;b style=&quot;&quot;&gt;&lt;span style=&quot;font-size: 24px;&quot;&gt;else&lt;/span&gt;&lt;br&gt;&lt;font style=&quot;font-size: 16px;&quot;&gt;putchar(&#39;/&#39;)&lt;br&gt;putchar(c)&lt;br&gt;&lt;/font&gt;&lt;/b&gt;&lt;/font&gt;" style="edgeLabel;html=1;align=center;verticalAlign=middle;resizable=0;points=[];" parent="AMoFaE7joyPMXflnSyXj-25" vertex="1" connectable="0">
          <mxGeometry x="-0.0756" y="-1" relative="1" as="geometry">
            <mxPoint y="-11" as="offset" />
          </mxGeometry>
        </mxCell>
        <mxCell id="H5EoVn_Cu4zVBm4JNlwW-1" value="&lt;font style=&quot;font-size: 28px;&quot;&gt;6&lt;/font&gt;" style="ellipse;whiteSpace=wrap;html=1;aspect=fixed;" parent="1" vertex="1">
          <mxGeometry x="680" y="680" width="80" height="80" as="geometry" />
        </mxCell>
        <mxCell id="H5EoVn_Cu4zVBm4JNlwW-4" value="" style="curved=1;endArrow=classic;html=1;rounded=0;exitX=0;exitY=1;exitDx=0;exitDy=0;entryX=1;entryY=1;entryDx=0;entryDy=0;" parent="1" source="H5EoVn_Cu4zVBm4JNlwW-1" target="AMoFaE7joyPMXflnSyXj-22" edge="1">
          <mxGeometry width="50" height="50" relative="1" as="geometry">
            <mxPoint x="610" y="860" as="sourcePoint" />
            <mxPoint x="570" y="900" as="targetPoint" />
            <Array as="points">
              <mxPoint x="640" y="800" />
              <mxPoint x="480" y="800" />
            </Array>
          </mxGeometry>
        </mxCell>
        <mxCell id="H5EoVn_Cu4zVBm4JNlwW-5" value="&lt;font style=&quot;&quot; face=&quot;Courier New&quot;&gt;&lt;b style=&quot;&quot;&gt;&lt;span style=&quot;font-size: 24px;&quot;&gt;any&lt;/span&gt;&lt;br&gt;&lt;font style=&quot;font-size: 16px;&quot;&gt;putchar(c)&lt;/font&gt;&lt;br&gt;&lt;/b&gt;&lt;/font&gt;" style="edgeLabel;html=1;align=center;verticalAlign=middle;resizable=0;points=[];" parent="H5EoVn_Cu4zVBm4JNlwW-4" vertex="1" connectable="0">
          <mxGeometry x="-0.0756" y="-1" relative="1" as="geometry">
            <mxPoint x="-11" as="offset" />
          </mxGeometry>
        </mxCell>
        <mxCell id="H5EoVn_Cu4zVBm4JNlwW-6" value="" style="curved=1;endArrow=classic;html=1;rounded=0;exitX=0.5;exitY=1;exitDx=0;exitDy=0;entryX=-0.017;entryY=0.449;entryDx=0;entryDy=0;entryPerimeter=0;" parent="1" source="AMoFaE7joyPMXflnSyXj-22" target="AMoFaE7joyPMXflnSyXj-22" edge="1">
          <mxGeometry width="50" height="50" relative="1" as="geometry">
            <mxPoint x="463.72" y="829.72" as="sourcePoint" />
            <mxPoint x="199.72" y="829.72" as="targetPoint" />
            <Array as="points">
              <mxPoint x="360" y="840" />
              <mxPoint x="280" y="760" />
            </Array>
          </mxGeometry>
        </mxCell>
        <mxCell id="H5EoVn_Cu4zVBm4JNlwW-7" value="&lt;font style=&quot;&quot; face=&quot;Courier New&quot;&gt;&lt;b style=&quot;&quot;&gt;&lt;span style=&quot;font-size: 24px;&quot;&gt;any&lt;/span&gt;&lt;br&gt;&lt;font style=&quot;font-size: 16px;&quot;&gt;putchar(c)&lt;/font&gt;&lt;br&gt;&lt;/b&gt;&lt;/font&gt;" style="edgeLabel;html=1;align=center;verticalAlign=middle;resizable=0;points=[];" parent="H5EoVn_Cu4zVBm4JNlwW-6" vertex="1" connectable="0">
          <mxGeometry x="-0.0756" y="-1" relative="1" as="geometry">
            <mxPoint x="-11" as="offset" />
          </mxGeometry>
        </mxCell>
        <mxCell id="H5EoVn_Cu4zVBm4JNlwW-8" value="" style="curved=1;endArrow=classic;html=1;rounded=0;exitX=0;exitY=0;exitDx=0;exitDy=0;entryX=0;entryY=1;entryDx=0;entryDy=0;" parent="1" source="AMoFaE7joyPMXflnSyXj-22" target="AMoFaE7joyPMXflnSyXj-1" edge="1">
          <mxGeometry width="50" height="50" relative="1" as="geometry">
            <mxPoint x="290" y="514.08" as="sourcePoint" />
            <mxPoint x="249" y="470.08000000000004" as="targetPoint" />
            <Array as="points">
              <mxPoint x="280" y="640" />
              <mxPoint x="280" y="480" />
            </Array>
          </mxGeometry>
        </mxCell>
        <mxCell id="H5EoVn_Cu4zVBm4JNlwW-9" value="&lt;font style=&quot;&quot; face=&quot;Courier New&quot;&gt;&lt;b style=&quot;&quot;&gt;&lt;span style=&quot;font-size: 24px;&quot;&gt;&#39;&quot;&#39;&lt;/span&gt;&lt;br&gt;&lt;font style=&quot;font-size: 16px;&quot;&gt;putchar(c)&lt;/font&gt;&lt;br&gt;&lt;/b&gt;&lt;/font&gt;" style="edgeLabel;html=1;align=center;verticalAlign=middle;resizable=0;points=[];" parent="H5EoVn_Cu4zVBm4JNlwW-8" vertex="1" connectable="0">
          <mxGeometry x="-0.0756" y="-1" relative="1" as="geometry">
            <mxPoint x="-1" y="-14" as="offset" />
          </mxGeometry>
        </mxCell>
        <mxCell id="H5EoVn_Cu4zVBm4JNlwW-10" value="" style="endArrow=classic;html=1;rounded=0;exitX=1;exitY=0.5;exitDx=0;exitDy=0;entryX=0;entryY=0.5;entryDx=0;entryDy=0;" parent="1" source="AMoFaE7joyPMXflnSyXj-1" target="AMoFaE7joyPMXflnSyXj-2" edge="1">
          <mxGeometry width="50" height="50" relative="1" as="geometry">
            <mxPoint x="450" y="420" as="sourcePoint" />
            <mxPoint x="690" y="420" as="targetPoint" />
          </mxGeometry>
        </mxCell>
        <mxCell id="H5EoVn_Cu4zVBm4JNlwW-11" value="&lt;font style=&quot;&quot; face=&quot;Courier New&quot;&gt;&lt;b style=&quot;&quot;&gt;&lt;span style=&quot;font-size: 24px;&quot;&gt;&#39;/&#39;&lt;/span&gt;&lt;br&gt;&lt;/b&gt;&lt;/font&gt;" style="edgeLabel;html=1;align=center;verticalAlign=middle;resizable=0;points=[];" parent="H5EoVn_Cu4zVBm4JNlwW-10" vertex="1" connectable="0">
          <mxGeometry x="0.1583" y="1" relative="1" as="geometry">
            <mxPoint x="-19" y="1" as="offset" />
          </mxGeometry>
        </mxCell>
        <mxCell id="xSR6Tt40gHcaKifHNPwv-1" value="" style="curved=1;endArrow=classic;html=1;rounded=0;exitX=0;exitY=0.5;exitDx=0;exitDy=0;entryX=0;entryY=0;entryDx=0;entryDy=0;" parent="1" source="AMoFaE7joyPMXflnSyXj-1" target="AMoFaE7joyPMXflnSyXj-1" edge="1">
          <mxGeometry width="50" height="50" relative="1" as="geometry">
            <mxPoint x="332" y="532" as="sourcePoint" />
            <mxPoint x="332" y="268" as="targetPoint" />
            <Array as="points">
              <mxPoint x="230" y="400" />
              <mxPoint x="320" y="280" />
            </Array>
          </mxGeometry>
        </mxCell>
        <mxCell id="xSR6Tt40gHcaKifHNPwv-2" value="&lt;font style=&quot;&quot; face=&quot;Courier New&quot;&gt;&lt;b style=&quot;&quot;&gt;&lt;span style=&quot;font-size: 24px;&quot;&gt;else&lt;/span&gt;&lt;br&gt;&lt;font style=&quot;font-size: 16px;&quot;&gt;putchar(c)&lt;/font&gt;&lt;br&gt;&lt;/b&gt;&lt;/font&gt;" style="edgeLabel;html=1;align=center;verticalAlign=middle;resizable=0;points=[];" parent="xSR6Tt40gHcaKifHNPwv-1" vertex="1" connectable="0">
          <mxGeometry x="-0.0756" y="-1" relative="1" as="geometry">
            <mxPoint x="10" y="-12" as="offset" />
          </mxGeometry>
        </mxCell>
        <mxCell id="ijKpKWuyQHeOEvaJhBuL-1" value="" style="curved=1;endArrow=classic;html=1;rounded=0;exitX=1;exitY=1;exitDx=0;exitDy=0;entryX=1;entryY=0;entryDx=0;entryDy=0;" edge="1" parent="1" source="AMoFaE7joyPMXflnSyXj-5" target="AMoFaE7joyPMXflnSyXj-5">
          <mxGeometry width="50" height="50" relative="1" as="geometry">
            <mxPoint x="840" y="180" as="sourcePoint" />
            <mxPoint x="800" y="220" as="targetPoint" />
            <Array as="points">
              <mxPoint x="840" y="200" />
              <mxPoint x="840" y="120" />
            </Array>
          </mxGeometry>
        </mxCell>
        <mxCell id="ijKpKWuyQHeOEvaJhBuL-2" value="&lt;font face=&quot;Courier New&quot;&gt;&lt;span style=&quot;font-size: 24px;&quot;&gt;&lt;b&gt;else&lt;/b&gt;&lt;/span&gt;&lt;/font&gt;" style="edgeLabel;html=1;align=center;verticalAlign=middle;resizable=0;points=[];" vertex="1" connectable="0" parent="ijKpKWuyQHeOEvaJhBuL-1">
          <mxGeometry x="-0.0756" y="-1" relative="1" as="geometry">
            <mxPoint y="-10" as="offset" />
          </mxGeometry>
        </mxCell>
      </root>
    </mxGraphModel>
  </diagram>
</mxfile>
